<?xml version="1.0" encoding="UTF-8" standalone="no"?>
<!DOCTYPE svg PUBLIC "-//W3C//DTD SVG 1.1//EN" "http://www.w3.org/Graphics/SVG/1.1/DTD/svg11.dtd">
<svg width="100%" height="100%" viewBox="0 0 300 300" version="1.1" xmlns="http://www.w3.org/2000/svg" xmlns:xlink="http://www.w3.org/1999/xlink" xml:space="preserve" xmlns:serif="http://www.serif.com/" style="fill-rule:evenodd;clip-rule:evenodd;stroke-linejoin:round;stroke-miterlimit:2;">
    <g id="Background" transform="matrix(1.06115,1.06115,-1.94199,1.94199,174.807,-248.424)">
        <path d="M251.135,76.963C251.135,71.981 243.732,67.936 234.614,67.936L117.472,67.936C108.354,67.936 100.951,71.981 100.951,76.963L100.951,140.973C100.951,145.955 108.354,150 117.472,150L234.614,150C243.732,150 251.135,145.955 251.135,140.973L251.135,76.963Z" style="fill:rgb(241,80,47);"/>
    </g>
    <g id="Branch">
        <g transform="matrix(1.1736,0,0,1.11306,-41.3553,-23.9407)">
            <circle cx="163.049" cy="213.416" r="20.915" style="fill:white;"/>
        </g>
        <g transform="matrix(1.1736,0,0,1.11306,-41.3553,-150.034)">
            <circle cx="163.049" cy="213.416" r="20.915" style="fill:white;"/>
        </g>
        <g transform="matrix(1.1736,0,0,1.11306,21.0847,-87.5456)">
            <circle cx="163.049" cy="213.416" r="20.915" style="fill:white;"/>
        </g>
        <g transform="matrix(0.814967,-0.814967,0.708559,0.708559,-16.8461,111.524)">
            <rect x="108.696" y="32.402" width="16.758" height="164.637" style="fill:white;"/>
        </g>
        <g transform="matrix(1.15254,-1.18213e-16,-4.71426e-17,0.575377,15.3817,86.6416)">
            <rect x="108.696" y="32.402" width="16.758" height="164.637" style="fill:white;"/>
        </g>
    </g>
</svg>
