<?xml version="1.0" encoding="UTF-8" standalone="no"?>
<!DOCTYPE svg PUBLIC "-//W3C//DTD SVG 1.1//EN" "http://www.w3.org/Graphics/SVG/1.1/DTD/svg11.dtd">
<svg width="100%" height="100%" viewBox="0 0 300 300" version="1.1" xmlns="http://www.w3.org/2000/svg" xmlns:xlink="http://www.w3.org/1999/xlink" xml:space="preserve" xmlns:serif="http://www.serif.com/" style="fill-rule:evenodd;clip-rule:evenodd;stroke-linecap:round;stroke-linejoin:round;stroke-miterlimit:1.5;">
    <g transform="matrix(1.04067,-0.634981,0.634981,1.04067,-105.641,106.469)">
        <g id="Hammer">
            <path d="M249.487,93.007C249.487,93.007 239.099,93.641 234.987,95.238C231.263,96.685 235.287,101.72 231.548,102.982C209.476,110.434 176.701,115.9 155.577,121.222C155.577,121.222 39.094,138.892 17.516,150C6.007,155.925 13.161,187.872 26.106,187.872C49.116,187.872 155.577,150 155.577,150C159.004,148.447 166.664,142.222 179.519,137.526C199.828,130.106 228.702,123.282 240.834,120.231C240.834,120.231 240.523,127.813 243.177,129.161C246.107,130.649 258.417,129.161 258.417,129.161C258.417,129.161 258.453,160.131 263.423,164.67C268.393,169.208 285.646,162.312 288.238,156.393C290.83,150.475 278.976,129.161 278.976,129.161C298.784,103.945 255.268,44.179 221.922,50.194C218.856,50.747 211.594,57.385 213.864,59.519C218.856,64.212 248.989,81.769 249.487,93.007Z" style="fill:rgb(255,0,0);stroke:black;stroke-width:0.68px;"/>
        </g>
    </g>
    <g id="Skateboard" transform="matrix(0.998414,0.998414,-0.998414,0.998414,145.527,-149.256)">
        <g id="Deck">
            <g transform="matrix(1.0346,0,0,1,-3.31923,0)">
                <ellipse cx="58.772" cy="148.15" rx="37.146" ry="35.926" style="fill:rgb(8,94,255);"/>
            </g>
            <g transform="matrix(1.0346,0,0,1,185.919,0)">
                <ellipse cx="58.772" cy="148.15" rx="37.146" ry="35.926" style="fill:rgb(8,94,255);"/>
            </g>
            <rect x="57.727" y="112.225" width="188.998" height="71.851" style="fill:rgb(8,94,255);"/>
        </g>
        <g transform="matrix(1.25824,0,0,1.94885,-24.2168,-176.9)">
            <text x="41.074px" y="176.563px" style="font-family:'MyanmarMN', 'Myanmar MN';font-size:29.167px;fill:rgb(242,242,242);">HAMMERT<tspan x="186.537px " y="176.563px ">I</tspan>ME</text>
        </g>
        <g id="Wheels">
            <g transform="matrix(0.982136,0,0,0.908283,1.22531,11.6469)">
                <path d="M104.537,113.51C104.537,110.7 102.427,108.419 99.829,108.419L80.37,108.419C77.772,108.419 75.662,110.7 75.662,113.51L75.662,123.693C75.662,126.503 77.772,128.784 80.37,128.784L99.829,128.784C102.427,128.784 104.537,126.503 104.537,123.693L104.537,113.51Z" style="fill:rgb(230,230,230);stroke:rgb(35,255,32);stroke-width:1.4px;stroke-linejoin:miter;stroke-miterlimit:24;"/>
            </g>
            <g transform="matrix(0.982136,0,0,0.908283,125.569,11.6469)">
                <path d="M104.537,113.51C104.537,110.7 102.427,108.419 99.829,108.419L80.37,108.419C77.772,108.419 75.662,110.7 75.662,113.51L75.662,123.693C75.662,126.503 77.772,128.784 80.37,128.784L99.829,128.784C102.427,128.784 104.537,126.503 104.537,123.693L104.537,113.51Z" style="fill:rgb(230,230,230);stroke:rgb(35,255,32);stroke-width:1.4px;stroke-linejoin:miter;stroke-miterlimit:24;"/>
            </g>
            <g transform="matrix(0.982136,0,0,0.908283,1.22531,68.1576)">
                <path d="M104.537,113.51C104.537,110.7 102.427,108.419 99.829,108.419L80.37,108.419C77.772,108.419 75.662,110.7 75.662,113.51L75.662,123.693C75.662,126.503 77.772,128.784 80.37,128.784L99.829,128.784C102.427,128.784 104.537,126.503 104.537,123.693L104.537,113.51Z" style="fill:rgb(230,230,230);stroke:rgb(35,255,32);stroke-width:1.4px;stroke-linejoin:miter;stroke-miterlimit:24;"/>
            </g>
            <g transform="matrix(0.982136,0,0,0.908283,125.569,68.1576)">
                <path d="M104.537,113.51C104.537,110.7 102.427,108.419 99.829,108.419L80.37,108.419C77.772,108.419 75.662,110.7 75.662,113.51L75.662,123.693C75.662,126.503 77.772,128.784 80.37,128.784L99.829,128.784C102.427,128.784 104.537,126.503 104.537,123.693L104.537,113.51Z" style="fill:rgb(230,230,230);stroke:rgb(35,255,32);stroke-width:1.4px;stroke-linejoin:miter;stroke-miterlimit:24;"/>
            </g>
        </g>
        <g id="Trucks">
            <g id="Right-Truck" serif:id="Right Truck">
                <g transform="matrix(1.48469,0,0,1.09552,-58.0307,-13.8245)">
                    <path d="M192.814,141.832C192.814,138.66 190.913,136.084 188.572,136.084L170.652,136.084C168.311,136.084 166.41,138.66 166.41,141.832L166.41,153.329C166.41,156.501 168.311,159.077 170.652,159.077L188.572,159.077C190.913,159.077 192.814,156.501 192.814,153.329L192.814,141.832Z" style="fill:rgb(255,0,0);stroke:rgb(255,255,32);stroke-width:0.23px;stroke-linejoin:miter;stroke-miterlimit:24;"/>
                </g>
                <g transform="matrix(0.980091,0,0,1,4.07737,1.77636e-15)">
                    <path d="M220.264,131.509C220.264,129.914 218.943,128.619 217.315,128.619L211.418,128.619C209.791,128.619 208.47,134.102 208.47,135.697C187.647,141.031 190.151,153.467 208.47,159.732C208.47,161.327 209.791,166.633 211.418,166.633L217.315,166.633C218.943,166.633 220.264,165.338 220.264,163.743L220.264,131.509Z" style="stroke:black;stroke-width:0.45px;stroke-linejoin:miter;stroke-miterlimit:24;"/>
                </g>
                <g id="Nut">
                    <g transform="matrix(0.694475,0,0,0.694475,60.1843,44.2917)">
                        <path d="M206.315,145.17C205.029,144.529 203.488,144.529 202.202,145.17L202.928,145.524C202.31,145.745 201.767,146.115 201.352,146.598L201.217,145.841C200.169,146.789 199.693,148.164 199.946,149.508L200.529,148.971C200.563,149.589 200.77,150.189 201.131,150.707L200.322,150.594C200.96,151.821 202.208,152.671 203.65,152.86L203.285,152.174C203.923,152.336 204.595,152.336 205.233,152.174L204.867,152.86C206.31,152.671 207.557,151.821 208.195,150.594L207.386,150.707C207.747,150.189 207.955,149.589 207.988,148.971L208.571,149.508C208.825,148.164 208.348,146.789 207.3,145.841L207.165,146.598C206.751,146.115 206.207,145.745 205.589,145.524L206.315,145.17ZM204.259,147.147C205.229,147.147 206.017,147.885 206.017,148.795C206.017,149.704 205.229,150.443 204.259,150.443C203.288,150.443 202.5,149.704 202.5,148.795C202.5,147.885 203.288,147.147 204.259,147.147Z" style="fill:white;stroke:black;stroke-width:0.42px;stroke-linejoin:miter;stroke-miterlimit:24;"/>
                    </g>
                    <g transform="matrix(1,0,0,1,-0.142219,0)">
                        <circle cx="202.179" cy="147.56" r="1.079" style="stroke:black;stroke-width:0.3px;stroke-linejoin:miter;stroke-miterlimit:24;"/>
                    </g>
                </g>
            </g>
            <g id="Left-Truck" serif:id="Left Truck" transform="matrix(-1,0,0,1,303.932,0.524185)">
                <g transform="matrix(1.48469,0,0,1.09552,-58.0307,-13.8245)">
                    <path d="M192.814,141.832C192.814,138.66 190.913,136.084 188.572,136.084L170.652,136.084C168.311,136.084 166.41,138.66 166.41,141.832L166.41,153.329C166.41,156.501 168.311,159.077 170.652,159.077L188.572,159.077C190.913,159.077 192.814,156.501 192.814,153.329L192.814,141.832Z" style="fill:rgb(255,0,0);stroke:rgb(255,255,32);stroke-width:0.23px;stroke-linejoin:miter;stroke-miterlimit:24;"/>
                </g>
                <g transform="matrix(0.980091,0,0,1,4.07737,1.77636e-15)">
                    <path d="M220.264,131.509C220.264,129.914 218.943,128.619 217.315,128.619L211.418,128.619C209.791,128.619 208.47,134.102 208.47,135.697C187.647,141.031 190.151,153.467 208.47,159.732C208.47,161.327 209.791,166.633 211.418,166.633L217.315,166.633C218.943,166.633 220.264,165.338 220.264,163.743L220.264,131.509Z" style="stroke:black;stroke-width:0.45px;stroke-linejoin:miter;stroke-miterlimit:24;"/>
                </g>
                <g id="Nut1" serif:id="Nut">
                    <g transform="matrix(0.694475,0,0,0.694475,60.1843,44.2917)">
                        <path d="M206.315,145.17C205.029,144.529 203.488,144.529 202.202,145.17L202.928,145.524C202.31,145.745 201.767,146.115 201.352,146.598L201.217,145.841C200.169,146.789 199.693,148.164 199.946,149.508L200.529,148.971C200.563,149.589 200.77,150.189 201.131,150.707L200.322,150.594C200.96,151.821 202.208,152.671 203.65,152.86L203.285,152.174C203.923,152.336 204.595,152.336 205.233,152.174L204.867,152.86C206.31,152.671 207.557,151.821 208.195,150.594L207.386,150.707C207.747,150.189 207.955,149.589 207.988,148.971L208.571,149.508C208.825,148.164 208.348,146.789 207.3,145.841L207.165,146.598C206.751,146.115 206.207,145.745 205.589,145.524L206.315,145.17ZM204.259,147.147C205.229,147.147 206.017,147.885 206.017,148.795C206.017,149.704 205.229,150.443 204.259,150.443C203.288,150.443 202.5,149.704 202.5,148.795C202.5,147.885 203.288,147.147 204.259,147.147Z" style="fill:white;stroke:black;stroke-width:0.42px;stroke-linejoin:miter;stroke-miterlimit:24;"/>
                    </g>
                    <g transform="matrix(1,0,0,1,-0.142219,0)">
                        <circle cx="202.179" cy="147.56" r="1.079" style="stroke:black;stroke-width:0.3px;stroke-linejoin:miter;stroke-miterlimit:24;"/>
                    </g>
                </g>
            </g>
        </g>
    </g>
</svg>
