<?xml version="1.0" encoding="UTF-8" standalone="no"?>
<!DOCTYPE svg PUBLIC "-//W3C//DTD SVG 1.1//EN" "http://www.w3.org/Graphics/SVG/1.1/DTD/svg11.dtd">
<svg width="100%" height="100%" viewBox="0 0 512 512" version="1.1" xmlns="http://www.w3.org/2000/svg" xmlns:xlink="http://www.w3.org/1999/xlink" xml:space="preserve" xmlns:serif="http://www.serif.com/" style="fill-rule:evenodd;clip-rule:evenodd;stroke-linejoin:round;stroke-miterlimit:2;">
    <g id="flat">
        <path d="M108.624,151.261C101.098,143.561 90.774,139.215 80.007,139.215C58.506,139.215 40.651,156.545 40.011,178.037C30.118,183.745 24.003,194.333 24.003,205.755C24.003,223.309 38.448,237.755 56.003,237.755C68.575,237.755 80.03,230.346 85.187,218.88C91.619,218.037 97.751,215.644 103.054,211.907C107.03,213.607 111.31,214.484 115.634,214.484C133.189,214.484 147.634,200.038 147.634,182.484C147.634,164.929 133.189,150.484 115.634,150.484C113.276,150.484 110.925,150.744 108.624,151.261Z" style="fill:rgb(2,164,55);fill-rule:nonzero;"/>
        <path d="M94.546,224.481C91.256,224.482 88.286,222.453 87.091,219.388L72.549,182.124C72.187,181.197 72.002,180.211 72.002,179.216C72.002,174.827 75.613,171.216 80.002,171.216C83.291,171.216 86.259,173.244 87.455,176.308L102,213.571C102.362,214.498 102.548,215.485 102.548,216.481C102.548,220.869 98.937,224.48 94.549,224.481L94.546,224.481Z" style="fill:rgb(2,126,42);fill-rule:nonzero;"/>
        <path d="M109.458,218.663C109.213,218.663 108.966,218.651 108.717,218.629C104.621,218.253 101.449,214.776 101.449,210.663C101.449,210.418 101.461,210.173 101.483,209.929C102.729,196.651 108.224,184.123 117.148,174.212C118.665,172.505 120.843,171.528 123.127,171.528C127.515,171.528 131.127,175.139 131.127,179.528C131.127,181.533 130.373,183.466 129.016,184.942C122.408,192.282 118.339,201.559 117.416,211.392C117.041,215.486 113.569,218.659 109.458,218.663Z" style="fill:rgb(2,126,42);fill-rule:nonzero;"/>
        <path d="M79.636,230.3C77.654,230.302 75.741,229.565 74.273,228.234C66.934,221.626 57.656,217.557 47.824,216.634C43.728,216.258 40.555,212.78 40.555,208.667C40.555,204.278 44.167,200.666 48.556,200.666C48.8,200.666 49.045,200.678 49.288,200.7C62.563,201.948 75.089,207.441 85,216.361C86.68,217.877 87.64,220.037 87.64,222.3C87.64,226.689 84.029,230.3 79.64,230.3C79.639,230.3 79.637,230.3 79.636,230.3Z" style="fill:rgb(2,126,42);fill-rule:nonzero;"/>
        <path d="M188.339,368.8L128.718,392.07L71.255,276.882C68.224,270.806 66.647,264.107 66.647,257.317C66.647,239.298 77.758,223.034 94.544,216.482C99.623,214.5 105.028,213.483 110.48,213.483C129.944,213.483 147.185,226.446 152.59,245.144L188.339,368.8Z" style="fill:rgb(253,146,38);fill-rule:nonzero;"/>
        <rect x="272" y="24" width="32" height="224" style="fill:rgb(2,106,35);fill-rule:nonzero;"/>
        <path d="M287.11,185.94C286.35,181.13 285.083,176.413 283.33,171.87L248,80L224,88L258.27,177.1C262.059,186.951 264.002,197.416 264,207.97L264,236.36L287.11,185.94Z" style="fill:rgb(2,114,38);fill-rule:nonzero;"/>
        <path d="M322.31,325.75C330.396,336.534 330.396,351.466 322.31,362.25L322.2,362.4C315.784,370.955 305.694,376 295,376L281,376C270.306,376 260.216,370.955 253.8,362.4L253.69,362.25C245.604,351.466 245.604,336.534 253.69,325.75L264,312L264,236.36L287.11,185.94L288,184L328,80L352,88L317.73,177.1C313.941,186.951 311.998,197.416 312,207.97L312,312L322.31,325.75Z" style="fill:rgb(2,126,42);fill-rule:nonzero;"/>
        <path d="M322.31,362.25L322.2,362.4C318.837,366.889 314.41,370.474 309.32,372.83L261.49,369.84C258.547,367.786 255.951,365.274 253.8,362.4L253.69,362.25C245.604,351.466 245.604,336.534 253.69,325.75L254.4,324.8L264,320L312,207.97L312,312L322.31,325.75C330.396,336.534 330.396,351.466 322.31,362.25Z" style="fill:rgb(2,126,42);fill-rule:nonzero;"/>
        <g>
            <path d="M80.55,298.644C80.547,298.644 80.543,298.644 80.54,298.644C76.151,298.644 72.54,295.033 72.54,290.644C72.54,287.352 74.572,284.381 77.64,283.188L92.545,277.372C93.472,277.01 94.458,276.825 95.453,276.825C99.842,276.825 103.454,280.436 103.454,284.825C103.454,288.114 101.426,291.082 98.362,292.278L83.462,298.095C82.534,298.458 81.546,298.644 80.55,298.644Z" style="fill:rgb(231,130,68);fill-rule:nonzero;"/>
            <path d="M125.266,281.193C125.263,281.193 125.26,281.193 125.257,281.193C120.869,281.193 117.257,277.582 117.257,273.193C117.257,269.902 119.288,266.932 122.355,265.738L137.261,259.922C138.188,259.56 139.174,259.375 140.169,259.375C144.558,259.375 148.169,262.986 148.169,267.375C148.169,270.664 146.141,273.632 143.077,274.828L128.177,280.645C127.249,281.007 126.262,281.193 125.266,281.193Z" style="fill:rgb(231,130,68);fill-rule:nonzero;"/>
            <path d="M93.411,327.728C93.408,327.728 93.404,327.728 93.401,327.728C89.012,327.728 85.401,324.117 85.401,319.728C85.401,316.436 87.433,313.465 90.501,312.272L111.631,304.272C112.558,303.91 113.544,303.725 114.539,303.725C118.929,303.725 122.54,307.336 122.54,311.726C122.54,315.015 120.512,317.983 117.448,319.179L96.317,327.179C95.391,327.541 94.405,327.727 93.411,327.728Z" style="fill:rgb(231,130,68);fill-rule:nonzero;"/>
            <path d="M144.352,308.1C144.349,308.1 144.347,308.1 144.344,308.1C139.956,308.1 136.344,304.489 136.344,300.1C136.344,296.809 138.375,293.839 141.442,292.645L148.895,289.736C149.822,289.374 150.808,289.189 151.803,289.189C156.192,289.189 159.804,292.8 159.804,297.19C159.804,300.479 157.775,303.447 154.711,304.643L147.258,307.551C146.332,307.913 145.346,308.099 144.352,308.1Z" style="fill:rgb(231,130,68);fill-rule:nonzero;"/>
        </g>
        <path d="M189,200L207.987,200C220.847,200 232.651,207.296 238.4,218.8L245,232L226.013,232C213.155,232 201.353,224.706 195.603,213.205L189,200Z" style="fill:rgb(2,164,55);fill-rule:nonzero;"/>
        <path d="M227.633,278C223.244,278 219.633,274.389 219.633,270C219.692,243.052 238.874,219.654 265.287,214.311L266.065,214.155C266.581,214.052 267.107,214 267.633,214C272.022,214 275.633,217.611 275.633,222C275.633,225.799 272.927,229.1 269.201,229.845L268.424,230C249.452,233.838 235.675,250.644 235.633,270C235.633,274.389 232.022,278 227.633,278Z" style="fill:rgb(143,105,52);fill-rule:nonzero;"/>
        <path d="M322.31,362.25L322.2,362.4C318.837,366.889 314.41,370.474 309.32,372.83L261.49,369.84C258.547,367.786 255.951,365.274 253.8,362.4L253.69,362.25C245.604,351.466 245.604,336.534 253.69,325.75L254.4,324.8L264,320L312,207.97L312,312L322.31,325.75C330.396,336.534 330.396,351.466 322.31,362.25Z" style="fill:rgb(203,203,203);fill-rule:nonzero;"/>
        <path d="M198.988,254C206.88,254 214.269,257.954 218.647,264.521C220.648,267.523 224.026,269.33 227.633,269.33C231.24,269.33 234.618,267.523 236.619,264.521C240.997,257.954 248.385,254 256.277,254C263.45,254 270.245,257.266 274.726,262.867L276.605,265.215C290.366,282.416 291.771,306.579 280.096,325.259L264.486,350.235C261.47,355.06 256.166,358 250.476,358C246.096,358 241.891,356.258 238.794,353.161C235.835,350.202 231.818,348.538 227.633,348.538C223.448,348.538 219.431,350.202 216.472,353.161C213.375,356.258 209.17,358 204.79,358C199.1,358 193.796,355.061 190.78,350.235L175.17,325.259C163.495,306.579 164.9,282.416 178.661,265.215L180.539,262.867C185.02,257.267 191.816,254 198.988,254Z" style="fill:rgb(232,47,62);fill-rule:nonzero;"/>
        <path d="M204.6,320C202.479,320.003 200.441,319.159 198.943,317.657C191.738,310.468 189.94,299.4 194.5,290.3L197.441,284.419C198.805,281.744 201.565,280.053 204.568,280.053C208.957,280.053 212.568,283.664 212.568,288.053C212.568,289.274 212.289,290.479 211.751,291.575L208.811,297.456C207.33,300.411 207.914,304.005 210.253,306.34C211.755,307.84 212.599,309.878 212.599,312C212.599,316.388 208.988,320 204.6,320Z" style="fill:rgb(255,98,104);fill-rule:nonzero;"/>
        <rect x="24" y="392" width="464" height="48" style="fill:rgb(234,157,45);fill-rule:nonzero;"/>
        <path d="M72,424L56,424C51.611,424 48,420.389 48,416C48,411.611 51.611,408 56,408L72,408C76.389,408 80,411.611 80,416C80,420.389 76.389,424 72,424Z" style="fill:rgb(195,131,37);fill-rule:nonzero;"/>
        <path d="M456,424L440,424C435.611,424 432,420.389 432,416C432,411.611 435.611,408 440,408L456,408C460.389,408 464,411.611 464,416C464,420.389 460.389,424 456,424Z" style="fill:rgb(195,131,37);fill-rule:nonzero;"/>
        <rect x="24" y="440" width="464" height="48" style="fill:rgb(251,181,64);fill-rule:nonzero;"/>
        <g>
            <path d="M72,472L56,472C51.611,472 48,468.389 48,464C48,459.611 51.611,456 56,456L72,456C76.389,456 80,459.611 80,464C80,468.389 76.389,472 72,472Z" style="fill:rgb(195,131,37);fill-rule:nonzero;"/>
            <path d="M264,424L248,424C243.611,424 240,420.389 240,416C240,411.611 243.611,408 248,408L264,408C268.389,408 272,411.611 272,416C272,420.389 268.389,424 264,424Z" style="fill:rgb(195,131,37);fill-rule:nonzero;"/>
            <path d="M264,472L248,472C243.611,472 240,468.389 240,464C240,459.611 243.611,456 248,456L264,456C268.389,456 272,459.611 272,464C272,468.389 268.389,472 264,472Z" style="fill:rgb(195,131,37);fill-rule:nonzero;"/>
            <path d="M456,472L440,472C435.611,472 432,468.389 432,464C432,459.611 435.611,456 440,456L456,456C460.389,456 464,459.611 464,464C464,468.389 460.389,472 456,472Z" style="fill:rgb(195,131,37);fill-rule:nonzero;"/>
        </g>
        <path d="M352,296L359.029,303.029C369.891,313.891 376,328.639 376,344L400,344L400,336C400,320.639 393.891,305.891 383.029,295.029L376,288L352,296Z" style="fill:rgb(2,126,42);fill-rule:nonzero;"/>
        <path d="M448,296L440.971,303.029C430.109,313.891 424,328.639 424,344L400,344L400,336C400,320.639 406.109,305.891 416.971,295.029L424,288L448,296Z" style="fill:rgb(2,126,42);fill-rule:nonzero;"/>
        <path d="M488,234C488.008,225.091 484.039,216.629 477.185,210.938C477.727,208.663 478,206.333 478,203.994C478,188.292 465.667,175.113 450,174.073C439.31,155.491 419.442,144 398.005,144C376.568,144 356.7,155.491 346.01,174.073C330.341,175.111 318.005,188.291 318.005,203.994C318.005,206.333 318.279,208.663 318.82,210.938C306.233,221.402 304.42,240.338 314.793,253C311.647,258.834 310,265.359 310,271.986C310,293.93 328.056,311.986 350,311.986C358.889,311.986 367.53,309.023 374.549,303.567C383.06,302.455 391.14,299.159 398,294C404.86,299.16 412.94,302.457 421.451,303.569C428.47,309.026 437.112,311.99 446.002,311.99C467.945,311.99 486.002,293.933 486.002,271.99C486.002,265.361 484.354,258.834 481.207,253C485.606,247.648 488.009,240.928 488,234Z" style="fill:rgb(2,164,55);fill-rule:nonzero;"/>
        <path d="M420.634,200C417.251,200 414.218,197.854 413.091,194.664C410.833,188.287 404.765,183.998 398,183.998C391.235,183.998 385.167,188.287 382.909,194.664C381.782,197.853 378.748,199.998 375.366,199.998C370.977,199.998 367.366,196.387 367.366,191.998C367.366,191.09 367.52,190.188 367.823,189.332C372.336,176.577 384.47,167.999 398,167.999C411.53,167.999 423.664,176.577 428.177,189.332C428.48,190.189 428.635,191.091 428.635,192C428.635,196.389 425.024,200 420.635,200C420.635,200 420.634,200 420.634,200Z" style="fill:rgb(2,126,42);fill-rule:nonzero;"/>
        <path d="M358,256C344.834,256 334,245.166 334,232C334,218.834 344.834,208 358,208C362.389,208 366,211.611 366,216C366,220.389 362.389,224 358,224C353.611,224 350,227.611 350,232C350,236.389 353.611,240 358,240C362.389,240 366,243.611 366,248C366,252.389 362.389,256 358,256Z" style="fill:rgb(2,126,42);fill-rule:nonzero;"/>
        <rect x="24" y="344" width="464" height="48" style="fill:rgb(251,181,64);fill-rule:nonzero;"/>
        <path d="M72,376L56,376C51.611,376 48,372.389 48,368C48,363.611 51.611,360 56,360L72,360C76.389,360 80,363.611 80,368C80,372.389 76.389,376 72,376Z" style="fill:rgb(195,131,37);fill-rule:nonzero;"/>
        <path d="M456,376L440,376C435.611,376 432,372.389 432,368C432,363.611 435.611,360 440,360L456,360C460.389,360 464,363.611 464,368C464,372.389 460.389,376 456,376Z" style="fill:rgb(195,131,37);fill-rule:nonzero;"/>
        <path d="M264,376L248,376C243.611,376 240,372.389 240,368C240,363.611 243.611,360 248,360L264,360C268.389,360 272,363.611 272,368C272,372.389 268.389,376 264,376Z" style="fill:rgb(195,131,37);fill-rule:nonzero;"/>
    </g>
</svg>
