<?xml version="1.0" encoding="UTF-8" standalone="no"?>
<!DOCTYPE svg PUBLIC "-//W3C//DTD SVG 1.1//EN" "http://www.w3.org/Graphics/SVG/1.1/DTD/svg11.dtd">
<svg width="100%" height="100%" viewBox="0 0 300 300" version="1.1" xmlns="http://www.w3.org/2000/svg" xmlns:xlink="http://www.w3.org/1999/xlink" xml:space="preserve" xmlns:serif="http://www.serif.com/" style="fill-rule:evenodd;clip-rule:evenodd;stroke-linejoin:round;stroke-miterlimit:2;">
    <g id="Sheild">
        <path id="Backshield" d="M299,1L1,1L27.852,269.481L150,299L272.398,269.381L299,1Z" style="fill:rgb(241,101,41);"/>
    </g>
    <path d="M272.74,22.681L150,23.429L150,275.517L249.116,252.774L272.74,22.681Z" style="fill:rgb(226,77,38);"/>
    <g transform="matrix(1,0,0,1,-0.18642,-0.384751)">
        <path d="M220.087,67.146L80.807,66.569L86.354,158.156L183.021,158.065L181.227,191.83L150.186,202.95L118.686,191.217L117.879,172.903L87.255,173.194L89.841,214.598L150.186,235.08L210.596,214.504L215.423,127.748L115.282,127.718L113.292,97.064L217.925,97.729L220.087,67.146Z" style="fill:white;"/>
    </g>
</svg>
