<?xml version="1.0" encoding="UTF-8" standalone="no"?>
<!DOCTYPE svg PUBLIC "-//W3C//DTD SVG 1.1//EN" "http://www.w3.org/Graphics/SVG/1.1/DTD/svg11.dtd">
<svg width="100%" height="100%" viewBox="0 0 300 300" version="1.1" xmlns="http://www.w3.org/2000/svg" xmlns:xlink="http://www.w3.org/1999/xlink" xml:space="preserve" xmlns:serif="http://www.serif.com/" style="fill-rule:evenodd;clip-rule:evenodd;stroke-linejoin:round;stroke-miterlimit:2;">
    <g id="Sheild">
        <path id="Backshield" d="M299,1L1,1L27.852,269.481L150,299L272.398,269.381L299,1Z" style="fill:rgb(240,219,79);"/>
    </g>
    <path d="M272.74,22.681L150,23.429L150,275.517L249.116,252.774L272.74,22.681Z" style="fill:rgb(250,255,108);"/>
    <g id="Letters">
        <path id="J" d="M139.368,54.048L56.394,54.048L59.495,86.152L103.508,85.813L103.346,198.582L82.426,195.494L78.768,169.958L42.09,169.193L47.818,221.35L139.955,237.125L139.368,54.048Z" style="fill:rgb(50,51,48);"/>
        <g id="S" transform="matrix(1,0,0,1,-0.622791,0)">
            <path d="M258.486,54.048L161.963,54.048L161.273,153.222L212.04,153.007L207.786,195.441L160.707,202.978L161.157,237.125L242.76,221.022L252.411,120.245L200.085,119.988L200.334,86.387L255.481,86.544L258.486,54.048Z" style="fill:rgb(50,51,48);fill-opacity:0.8;"/>
        </g>
    </g>
</svg>
