<?xml version="1.0" encoding="UTF-8" standalone="no"?>
<!DOCTYPE svg PUBLIC "-//W3C//DTD SVG 1.1//EN" "http://www.w3.org/Graphics/SVG/1.1/DTD/svg11.dtd">
<svg width="100%" height="100%" viewBox="0 0 300 300" version="1.1" xmlns="http://www.w3.org/2000/svg" xmlns:xlink="http://www.w3.org/1999/xlink" xml:space="preserve" xmlns:serif="http://www.serif.com/" style="fill-rule:evenodd;clip-rule:evenodd;stroke-linejoin:round;stroke-miterlimit:2;">
	<animateTransform
	    attributeName="transform"
	    dur="10s"
	    type="rotate"
	    from="0 0 0"
	    to="360 0 0"
	    repeatCount="indefinite"
	/>
    <g id="Ring1" transform="matrix(0.49938,-0.866383,0.866383,0.49938,-54.6284,205.285)">
        <path d="M226.056,20.579C255.183,37.698 244.746,109.587 202.764,181.013C160.783,252.439 103.051,296.53 73.924,279.41C44.798,262.29 55.234,190.402 97.216,118.976C139.198,47.549 196.929,3.459 226.056,20.579ZM218.191,31.684C241.468,45.028 229.912,108.985 192.402,174.418C154.891,239.851 105.539,282.14 82.262,268.796C58.984,255.452 70.54,191.495 108.051,126.062C145.562,60.629 194.914,18.34 218.191,31.684Z" style="fill:rgb(97,219,251);"/>
    </g>
    <path id="Ring11" serif:id="Ring1" d="M226.056,20.579C255.183,37.698 244.746,109.587 202.764,181.013C160.783,252.439 103.051,296.53 73.924,279.41C44.798,262.29 55.234,190.402 97.216,118.976C139.198,47.549 196.929,3.459 226.056,20.579ZM218.191,31.684C241.468,45.028 229.912,108.985 192.402,174.418C154.891,239.851 105.539,282.14 82.262,268.796C58.984,255.452 70.54,191.495 108.051,126.062C145.562,60.629 194.914,18.34 218.191,31.684Z" style="fill:rgb(97,219,251);"/>
    <g id="Ring12" serif:id="Ring1" transform="matrix(0.498607,0.861989,-0.862151,0.498701,204.592,-53.8671)">
        <path d="M226.056,20.579C255.183,37.698 244.746,109.587 202.764,181.013C160.783,252.439 103.051,296.53 73.924,279.41C44.798,262.29 55.234,190.402 97.216,118.976C139.198,47.549 196.929,3.459 226.056,20.579ZM218.191,31.684C241.468,45.028 229.912,108.985 192.402,174.418C154.891,239.851 105.539,282.14 82.262,268.796C58.984,255.452 70.54,191.495 108.051,126.062C145.562,60.629 194.914,18.34 218.191,31.684Z" style="fill:rgb(97,219,251);"/>
    </g>
    <g transform="matrix(1.06062,0,0,1.06062,-22.5177,-9.9049)">
        <circle cx="163.183" cy="150.761" r="25.544" style="fill:rgb(97,219,251);"/>
    </g>
</svg>
