<?xml version="1.0" encoding="UTF-8" standalone="no"?>
<!DOCTYPE svg PUBLIC "-//W3C//DTD SVG 1.1//EN" "http://www.w3.org/Graphics/SVG/1.1/DTD/svg11.dtd">
<svg width="100%" height="100%" viewBox="0 0 300 300" version="1.1" xmlns="http://www.w3.org/2000/svg" xmlns:xlink="http://www.w3.org/1999/xlink" xml:space="preserve" xmlns:serif="http://www.serif.com/" style="fill-rule:evenodd;clip-rule:evenodd;stroke-linejoin:round;stroke-miterlimit:2;">
    	<!-- <animateTransform
            attributeName="transform"
            dur="10s"
            type="rotate"
            from="0 0 0"
            to="360 0 0"
            repeatCount="indefinite"
        /> -->
    <g id="hook3" transform="matrix(-0.52562,-0.85072,0.85072,-0.52562,82.9965,382.196)">
        <g transform="matrix(0.965417,0,0,0.965417,-11.8592,7.23398)">
            <circle cx="118.546" cy="211.761" r="22.457" style="fill:rgb(118,74,188);"/>
        </g>
        <g transform="matrix(0.916435,-0.391031,0.392455,0.919771,-56.4856,47.0065)">
            <path d="M165.885,48.011C192.901,47.045 210.435,55.302 222.841,66.959C258.508,100.472 241.883,165.733 240.45,170.823C234.465,166.768 223.315,159.387 223.407,159.172C234.403,118.535 224.125,86.298 203.51,75.664C181.432,64.276 156.181,64.81 133.923,81.029C104.276,102.632 81.735,143.307 86.206,205.014L67.457,209.081C67.457,209.081 65.816,189.139 66.047,178.6C67.546,110.458 115.786,49.801 165.885,48.011Z" style="fill:rgb(118,74,188);"/>
        </g>
    </g>
    <g id="hook2" transform="matrix(-0.453531,0.89124,-0.89124,-0.453531,363.36,123.711)">
        <g transform="matrix(0.965417,0,0,0.965417,-11.8592,7.23398)">
            <circle cx="118.546" cy="211.761" r="22.457" style="fill:rgb(118,74,188);"/>
        </g>
        <g transform="matrix(0.916435,-0.391031,0.392455,0.919771,-56.7329,42.7011)">
            <path d="M165.885,48.011C192.901,47.045 210.435,55.302 222.841,66.959C258.508,100.472 241.883,165.733 240.45,170.823C234.465,166.768 223.315,159.387 223.407,159.172C234.403,118.535 224.125,86.298 203.51,75.664C181.432,64.276 156.181,64.81 133.923,81.029C104.276,102.632 81.735,143.307 86.206,205.014L67.457,209.081C67.457,209.081 65.816,189.139 66.047,178.6C67.546,110.458 115.786,49.801 165.885,48.011Z" style="fill:rgb(118,74,188);"/>
        </g>
    </g>
    <g id="hook1">
        <g transform="matrix(0.965417,0,0,0.965417,-11.9432,0.907491)">
            <circle cx="118.546" cy="211.761" r="22.457" style="fill:rgb(118,74,188);"/>
        </g>
        <g transform="matrix(0.916435,-0.391031,0.392455,0.919771,-56.5689,38.6082)">
            <path d="M165.885,48.011C192.901,47.045 210.435,55.302 222.841,66.959C258.508,100.472 241.883,165.733 240.45,170.823C234.465,166.768 223.315,159.387 223.407,159.172C234.403,118.535 224.125,86.298 203.51,75.664C181.432,64.276 156.181,64.81 133.923,81.029C104.276,102.632 81.735,143.307 86.206,205.014L67.457,209.081C67.457,209.081 65.816,189.139 66.047,178.6C67.546,110.458 115.786,49.801 165.885,48.011Z" style="fill:rgb(118,74,188);"/>
        </g>
    </g>
</svg>
